<?xml-stylesheet type="text/css" href="../css/header.css" ?>
<!-- Generator: Adobe Illustrator 19.2.1, SVG Export Plug-In . SVG Version: 6.00 Build 0)  -->
<svg version="1.1" id="Layer_1" xmlns="http://www.w3.org/2000/svg" xmlns:xlink="http://www.w3.org/1999/xlink" x="0px" y="0px"
	 viewBox="0 0 720.3 720.3" style="enable-background:new 0 0 720.3 720.3;" xml:space="preserve">
<style type="text/css">
	.st0{fill:#6ADBC6;}
	.st1{fill:#50FFDD;}
	.st2{fill:#308776;}
	.st3{fill:#FF717F;}
	.st4{fill:#E2596C;}
	.st5{fill:#308676;}
	.st6{fill:#FFFFFF;}
	.QM1{fill:#FF5A79;}
</style>
<path class="st0" d="M337.8,218.5c-88.9,0-164.2,88.5-159.1,185.9c1.4,26.4,7.2,223.7,30.1,255.4c18.3,25.2,40.9-26.3,70.3-26.3
	c29.4,0,29.4,32.4,58.7,32.4c29.3,0,29.3-32.4,58.7-32.4c29.3,0,52,51.5,70.3,26.3c23-31.8,28.8-228.9,30.1-255.4
	C502,307,426.7,218.5,337.8,218.5z"/>
<path class="st1" d="M455.5,674.3c-10.2,0-19.3-7.8-29-16.1c-9.8-8.4-20-17.1-30-17.1c-11.3,0-16.7,6-23.7,13.7
	c-7.6,8.3-17,18.7-35,18.7c-18.1,0-27.5-10.4-35.1-18.7c-6.9-7.6-12.4-13.7-23.6-13.7c-10.1,0-20.2,8.7-30,17.1
	c-9.7,8.3-18.8,16.1-29,16.1c-6.8,0-12.7-3.4-17.6-10.1c-15-20.7-24.9-99.1-31.1-246.7c-0.2-5.7-0.4-10.1-0.6-12.8
	c-2.7-52.2,16.5-104,52.7-142.2c31.7-33.4,72.2-51.8,114.1-51.8s82.4,18.4,114.1,51.8c36.2,38.2,55.5,90,52.7,142.2
	c-0.1,2.6-0.3,6.8-0.5,12.4c-6.1,147.7-16,226.2-31.1,247.1C468.1,670.9,462.2,674.3,455.5,674.3z M396.5,625.7
	c15.8,0,28.7,11.1,40.1,20.8c6.8,5.8,14.5,12.4,18.9,12.4c0.6,0,2.3,0,5-3.7c8.8-12.2,20.9-63.5,28.2-238.6c0.2-5.7,0.4-10,0.5-12.6
	c2.5-48-15.2-95.6-48.5-130.7c-28.8-30.3-65.3-47-102.9-47s-74.1,16.7-102.9,47c-33.3,35.1-51,82.7-48.5,130.7
	c0.1,2.7,0.3,7.1,0.6,12.9c7.3,175,19.3,226.2,28.1,238.3c2.7,3.8,4.5,3.8,5,3.8c4.4,0,12.1-6.6,18.9-12.4
	c11.4-9.8,24.3-20.8,40.1-20.8c18.1,0,27.5,10.4,35.1,18.7c6.9,7.6,12.4,13.7,23.6,13.7c11.2,0,16.7-6,23.6-13.6
	C369,636.1,378.4,625.7,396.5,625.7z"/>
<path class="st0" d="M467.4,459.6c83.6,19.8,67.3-23.9,88.4,0.7c19.3,22.4-7.4,70.2-93.2,88.8"/>
<path class="st1" d="M462.7,556.8c-4.3-0.1-7.7-3.6-7.6-7.8c0-3.6,2.5-6.7,6-7.4c57.8-12.5,85.5-38.2,91.6-56.5
	c1.8-5.4,2.9-13.3-2.6-19.7c-2.4-2.8-3.8-4.1-4.6-4.7c-0.7,0.4-1.3,0.9-2,1.3c-8.9,6.1-25.6,17.5-77.8,5.2c-4.1-1.1-6.5-5.4-5.4-9.5
	c1.1-3.9,5-6.3,9-5.5c45.5,10.8,58.5,1.9,65.5-2.9c10.4-7.1,17-5.6,27,6.1c8,9.3,9.9,21.6,5.6,34.7c-7.8,23.2-38.9,52.9-103,66.7
	C463.8,556.8,463.2,556.8,462.7,556.8z"/>
<g>
	<path class="st2" d="M436.6,468.5c0,33.9-41.8,62.8-93.4,62.8c-51.6,0-93.4-28.9-93.4-62.8c0,0,44.4,9.9,93.4,9.9
		S436.6,468.5,436.6,468.5z"/>
</g>
<g>
	<path class="st3" d="M283.5,534c0-42.5,0-29.4,59.7-29.4c59.8,0,59.8-13,59.8,29.4s-26.8,63.8-59.8,63.8
		C310.3,597.8,283.5,576.5,283.5,534z"/>
	<path class="st4" d="M352.9,504.6l-9.7,72.8l-9.7-72.8H352.9z"/>
</g>
<g>
	<path class="st5" d="M236.1,300.8c20-11.6,44.1-13.7,65.7-5.7c3,1.2,7.8-9.8,4.1-11.2c-25-9.2-52.8-6.8-75.8,6.6
		C226.7,292.5,233.3,302.5,236.1,300.8z M376.2,318.3c20-11.6,44-13.7,65.7-5.8c3,1.2,7.8-9.8,4.1-11.2c-25-9.2-52.8-6.7-75.8,6.6
		C366.8,310,373.4,320,376.2,318.3z"/>
</g>
<path class="st6" d="M416.5,412.6c-28.1,0-50.9-22.8-50.9-50.9c0-11.5,3.9-22.1,10.3-30.6c12.3-3.4,25-5.1,37.7-5.1
	c16.6,0,32,2.7,45.2,7.4c15.6,23.4,9.3,55-14.1,70.6C436.3,409.6,426.5,412.6,416.5,412.6z"/>
<path class="st5" d="M423.5,326.3c2.9,4.1,4.6,9.1,4.6,14.5c0,14.1-11.4,25.5-25.5,25.5s-25.5-11.4-25.5-25.5
	c0-3.9,0.9-7.5,2.5-10.8c10.4-2.6,21.9-4,34-4C417,326,420.2,326.1,423.5,326.3z"/>
<path class="st6" d="M277.8,418.1c-30.4,0-55.1-28.4-55.1-63.5c0-14.4,4.2-27.6,11.2-38.2c13.3-4.2,27.1-6.4,40.9-6.3
	c17.9,0,34.7,3.4,48.9,9.2c16.9,29.2,10.1,68.6-15.2,88.1C299.3,414.3,288.7,418.1,277.8,418.1z"/>
<path class="st5" d="M285.4,310.5c3.1,5.1,5,11.4,5,18.1c0,17.5-12.3,31.8-27.6,31.8c-15.2,0-27.6-14.2-27.6-31.8
	c0-4.9,1-9.4,2.7-13.5c11.3-3.2,23.7-5,36.8-5C278.3,310.1,281.9,310.2,285.4,310.5z"/>
<path class="st0" d="M293,491.2c-21.4,7.3-76.2,18.9-87.4,9.5c-5-4.2-4.8-11.2-4.3-23.2c0.4-11.9-12.2-23.7-20.6-24
	c-10.1-0.4-15.2,7.5-10.7,17.7c9.9,22.5-4.3,31.3-3.4,48.6c0.5,10-1.1,26.8,15.9,46.7c19.2,22.5,49,20.1,59.2,18.9
	c12.1-1.5,17.1-2.4,19.4-8.2c2.6-6.4,1-7.7,2.1-10c2.4-5.1,3.9-4.6,4.7-10.1c0.9-6-3.6-9-2.8-12c1.6-6.2,6.9-5.8,0.3-19.7
	c17.5-4.3,28.8-8.1,38.8-15C322,498,304.4,487.4,293,491.2z"/>
<path class="st1" d="M222.3,590.5c-18.2-1.5-33.3-8.8-43.7-21.1c-16.1-19-16.6-35.3-16.8-46c0-1.2-0.1-2.4-0.1-3.4
	c-0.4-7.5,1.7-13.4,3.7-19.1c2.9-8.4,5.5-15.7,0.1-28c-2.9-6.7-2.7-13.2,0.8-17.8c3.1-4.2,8.4-6.4,14.6-6.2l0.7,0.1
	c11.3,1,25.2,14.7,24.7,28.8c-0.4,11.5-0.4,17,2.7,19.6c0.6,0.5,2.5,1.6,8.1,2.1c20,1.7,58.4-7.1,74.3-12.5c2.8-0.9,5.8-1.3,8.8-1
	c7.8,0.7,14.3,4.9,16.1,10.7c1.1,3.4,1.3,10.3-9.1,17.5c-9.7,6.7-20.5,10.6-35.2,14.4c4.9,10-4.5,14.8-2.2,18.5
	c3.4,5.4,3,10.3-2.4,16.3c-3.8,4.3,1.6,8.2-1.7,15.7c-3.7,8.4-11.8,9.6-23.3,11C235.7,590.8,229,591,222.3,590.5z M171.3,466.2
	c5.4,17,6.9,22.9,1.6,37.5c-7.3,19.9-6.3,73.1,50.5,78.1c34.5,3.1,38.8-5.7,36.6-14.4c-1.4-5.6,3.2-8.3,4.1-10.3
	c3-6.8-2.5-9.1-2.9-11.6c-0.6-4.8,4.3-5.1,4.6-9.9c0.6-8.6-9.7-10.6-0.8-12.1c17.1-2.8,28.4-6.7,37.7-14.5
	c8.7-7.3,1.1-19.4-11.2-15.6c-28.7,8.9-71.4,20.3-87.6,7.9c-7.3-5.6-2.5-13.2-4.4-27.2C196.8,455.2,166.4,450.7,171.3,466.2z"/>
<g id="RightQM">
	<path class="QM1" d="M479.4,166c-12.4-4.6-21.7-0.5-27.7,11.6l12.2,5.4c2-4.2,5.8-6.4,10.5-4.9c4.6,1.5,8.3,4.3,8.2,7.9
		c-0.1,3.8-4.8,6.2-6.9,7.2c-4,1.7-9.3,1.9-12.9,4.1c-3.6,2.1-5.8,6-8.1,10.9l10.7,4.7c1.6-3.1,3.1-6.1,5.4-7.4
		c3.8-2.2,7.9-2.1,12-3.4c3.9-1.2,8.1-2.8,10.6-7.1C500.8,182.2,492.6,170.9,479.4,166z"/>
	
		<ellipse class="QM1" transform="matrix(0.4042 -0.9147 0.9147 0.4042 68.4542 548.3403)"  cx="455.1" cy="221.6" rx="7.3" ry="7.4"/>
</g>
<g id="LeftQM">
	<path class="QM1" d="M239,100.2c-18.5,4.8-26.2,17.4-23.3,36.7l18.9-3.7c-1.1-6.7,1.7-12.4,8.4-14.5c6.6-2,13.4-1.7,16.2,2.6
		c3.1,4.6-0.5,11.3-2.3,14.2c-3.3,5.3-9.4,10-11.9,15.5c-2.5,5.5-1.9,11.9-0.6,19.6l16.7-3.3c-0.7-5-1.3-9.8,0.3-13.3
		c2.7-5.7,7.7-9.1,11.5-13.9c3.6-4.6,7.3-10,6.7-17.2C277.8,101.6,258.8,95,239,100.2z"/>
	
		<ellipse class="QM1" transform="matrix(0.9814 -0.1922 0.1922 0.9814 -31.0241 52.7188)"  cx="256.3" cy="186.3" rx="10.7" ry="10.6"/>
</g>
<g id="MiddleQM">
	<path class="QM1" d="M389.1,23.2c-27,1-41.4,15.9-43.3,43.5l27.2,0.7c0.6-9.5,6.1-16.6,16-17.4c9.8-0.8,19,1.7,21.6,8.5
		c2.8,7.3-4.1,15.5-7.5,18.9c-6.1,6.4-16,10.9-21.2,17.8c-5.1,6.8-6.2,15.8-6.8,26.9l23.9,0.6c0.5-7.1,1.1-13.9,4.5-18.2
		c5.4-7,13.3-10.2,20-15.7c6.4-5.2,13.2-11.6,14.5-21.6C442.2,37,417.9,22.1,389.1,23.2z"/>
	
		<ellipse class="QM1" transform="matrix(2.426272e-02 -0.9997 0.9997 2.426272e-02 230.3711 529.9871)" cx="386.7" cy="147" rx="14.9" ry="15.1"/>
</g>
</svg>
